<mxfile host="app.diagrams.net" modified="2021-03-09T08:57:52.784Z" agent="5.0 (Windows NT 10.0; Win64; x64) AppleWebKit/537.36 (KHTML, like Gecko) Chrome/88.0.4324.190 Safari/537.36" etag="Bx6bSFT5Ab3Tn_ZkVyKe" version="14.4.4" type="github">
  <diagram id="tnznA_tpKmL6P5zrWa1i" name="第 1 页">
    <mxGraphModel dx="1422" dy="746" grid="1" gridSize="10" guides="1" tooltips="1" connect="1" arrows="1" fold="1" page="1" pageScale="1" pageWidth="827" pageHeight="1169" math="0" shadow="0">
      <root>
        <mxCell id="0" />
        <mxCell id="1" parent="0" />
        <mxCell id="hudU2exV2Holwjp-ecqG-11" value="" style="edgeStyle=orthogonalEdgeStyle;rounded=0;orthogonalLoop=1;jettySize=auto;html=1;fontSize=10.5;" edge="1" parent="1" source="hudU2exV2Holwjp-ecqG-2" target="hudU2exV2Holwjp-ecqG-10">
          <mxGeometry relative="1" as="geometry" />
        </mxCell>
        <mxCell id="hudU2exV2Holwjp-ecqG-2" value="生成器" style="rounded=1;whiteSpace=wrap;html=1;fillColor=#ffe6cc;strokeColor=#d79b00;fontSize=10.5;" vertex="1" parent="1">
          <mxGeometry x="350" y="380" width="120" height="60" as="geometry" />
        </mxCell>
        <mxCell id="hudU2exV2Holwjp-ecqG-8" style="edgeStyle=orthogonalEdgeStyle;rounded=0;orthogonalLoop=1;jettySize=auto;html=1;exitX=1;exitY=0.5;exitDx=0;exitDy=0;entryX=0.5;entryY=1;entryDx=0;entryDy=0;fontSize=10.5;" edge="1" parent="1" source="hudU2exV2Holwjp-ecqG-3" target="hudU2exV2Holwjp-ecqG-2">
          <mxGeometry relative="1" as="geometry" />
        </mxCell>
        <mxCell id="hudU2exV2Holwjp-ecqG-13" value="更新" style="edgeLabel;html=1;align=center;verticalAlign=middle;resizable=0;points=[];fontSize=10.5;" vertex="1" connectable="0" parent="hudU2exV2Holwjp-ecqG-8">
          <mxGeometry x="0.1443" y="-1" relative="1" as="geometry">
            <mxPoint as="offset" />
          </mxGeometry>
        </mxCell>
        <mxCell id="hudU2exV2Holwjp-ecqG-3" value="判别器" style="rounded=1;whiteSpace=wrap;html=1;fillColor=#dae8fc;strokeColor=#6c8ebf;fontSize=10.5;" vertex="1" parent="1">
          <mxGeometry x="354" y="500" width="120" height="60" as="geometry" />
        </mxCell>
        <mxCell id="hudU2exV2Holwjp-ecqG-5" style="edgeStyle=orthogonalEdgeStyle;rounded=0;orthogonalLoop=1;jettySize=auto;html=1;exitX=1;exitY=0.5;exitDx=0;exitDy=0;entryX=0;entryY=0.25;entryDx=0;entryDy=0;fontSize=10.5;" edge="1" parent="1" source="hudU2exV2Holwjp-ecqG-4" target="hudU2exV2Holwjp-ecqG-3">
          <mxGeometry relative="1" as="geometry" />
        </mxCell>
        <mxCell id="hudU2exV2Holwjp-ecqG-4" value="真实图像&lt;br&gt;数据集" style="whiteSpace=wrap;html=1;aspect=fixed;fontSize=10.5;" vertex="1" parent="1">
          <mxGeometry x="230" y="475" width="80" height="80" as="geometry" />
        </mxCell>
        <mxCell id="hudU2exV2Holwjp-ecqG-7" value="" style="edgeStyle=orthogonalEdgeStyle;rounded=0;orthogonalLoop=1;jettySize=auto;html=1;fontSize=10.5;" edge="1" parent="1" source="hudU2exV2Holwjp-ecqG-6" target="hudU2exV2Holwjp-ecqG-2">
          <mxGeometry relative="1" as="geometry" />
        </mxCell>
        <mxCell id="hudU2exV2Holwjp-ecqG-6" value="随机噪声" style="ellipse;whiteSpace=wrap;html=1;aspect=fixed;fontSize=10.5;fillColor=#e1d5e7;strokeColor=#9673a6;" vertex="1" parent="1">
          <mxGeometry x="240" y="380" width="60" height="60" as="geometry" />
        </mxCell>
        <mxCell id="hudU2exV2Holwjp-ecqG-12" style="edgeStyle=orthogonalEdgeStyle;rounded=0;orthogonalLoop=1;jettySize=auto;html=1;exitX=1;exitY=0.5;exitDx=0;exitDy=0;entryX=0;entryY=0.75;entryDx=0;entryDy=0;fontSize=10.5;" edge="1" parent="1" source="hudU2exV2Holwjp-ecqG-10" target="hudU2exV2Holwjp-ecqG-3">
          <mxGeometry relative="1" as="geometry">
            <Array as="points">
              <mxPoint x="620" y="410" />
              <mxPoint x="620" y="580" />
              <mxPoint x="334" y="580" />
              <mxPoint x="334" y="545" />
            </Array>
          </mxGeometry>
        </mxCell>
        <mxCell id="hudU2exV2Holwjp-ecqG-10" value="虚拟图像&lt;br&gt;数据集" style="whiteSpace=wrap;html=1;aspect=fixed;fontSize=10.5;" vertex="1" parent="1">
          <mxGeometry x="510" y="370" width="80" height="80" as="geometry" />
        </mxCell>
      </root>
    </mxGraphModel>
  </diagram>
</mxfile>
